<svg xmlns="http://www.w3.org/2000/svg" width="190" height="52.027" viewBox="0 0 190 52.027">
    <defs>
        <style>
            .cls-1{fill:#0082ca}
        </style>
    </defs>
    <g id="Grupo_1421" transform="translate(-88.484 -218.778)">
        <path id="Caminho_133" d="M248.815 248.377a13.444 13.444 0 0 0-4 .619c-14.921 4.636-12.124 20.132-12.051 22.851a25.985 25.985 0 0 1-.147 5.8c-1.155 7.606-12.727 16.3-24.021 11.021-12.124-5.667-5.034-27.838-4.593-29.528s.147-2.278-.441-2.866a6.7 6.7 0 0 0-3.108-1.722c-1.837-.588-1.911 1.029-1.911 1.029s-3.454 14.13-1.511 23.467c4.033 19.386 34.213 16.048 37.6-2.546 3.142 5.29 11.87 7.609 18.039 3.994 3.2-1.874 4.13-4.093 4.078-5.126 0 0-.11-.936-.772-.366-9.291 8-15.577 1.689-16.091-7.642s3.673-15.136 8.23-16.238a5.272 5.272 0 0 1 6.147 2.356 8.039 8.039 0 0 1 .76 2.861c.072.739 2.792-2.425 2.939-3.234.222-1.182-3.622-4.729-9.147-4.73z" class="cls-1" transform="translate(-77.693 -21.301)"/>
        <path id="Caminho_134" d="M373.022 229.067c-2.26-.635-4.275.146-5.062 1.483-.739 1.256-.414 3.313.746 3.971a2.063 2.063 0 0 0 1.648.347c-2.743 1.183-6.825-.719-9.57-2.126-.387-.2-.815-.407-1.271-.621.951-5.656 1.341-8.475.13-9.89a11.229 11.229 0 0 0-4.837-3.2c-1.692-.543-2.331-.2-2.206.877.061.521 0 4.391-.306 9.56a37.437 37.437 0 0 0-3.991-.863c-5.076-.8-8.515-.6-10.376.073a3.527 3.527 0 0 0-2.371 2.254c-.07.268.168.157.652.022a21.157 21.157 0 0 1 6.626-.707 29.924 29.924 0 0 1 9.3 1.72c-.353 4.99-.928 10.78-1.825 15.861-2.468 13.992-5.25 18.727-9.124 18.268l-.085-.008c-3.973-1.016-2.673-11.535 1.01-19.919 2.619-5.962 4.74-10.693.882-11.52-2.192-.47-5.336.573-9.467 3.957a31.854 31.854 0 0 0-6.721 8.017c1.564-8.5-6.023-15.6-14.781-17.548a30.168 30.168 0 0 0-8.938-.893 53.09 53.09 0 0 0-4.853-2.572c-.117-.057-.233-.106-.348-.15-5.08-2.408-14.01-5.2-27.69-4.773-26.029 1.557-35.678 11.4-35.624 17.845.047 5.512 5.951 5.565 11.683 9.864 4.182 3.136 1.789 12.559-4.574 12.9-5.548.291-7.623-5.062-5.395-7.987.376-.493.669-.805.546-1.051-.276-.551-2.369 0-4.133 1.213s-1.181 4.192.458 6.269c1.556 1.973 4.485 3.872 9.9 3.375a12.052 12.052 0 0 0 11.045-11.353c.31-5.735-2.343-8.1-5.984-10.22-3.463-2.018-7.515-3.652-7.584-5.887-.048-1.554.351-3.8 3.454-5.825 6.939-4.528 16.7-7.5 29.529-7.746a53.708 53.708 0 0 1 22.675 4.353l.072.036a38.453 38.453 0 0 1 4.1 2 22.831 22.831 0 0 0-7.211 2.38c-8.609 4.6-9.357 12.8-9.133 17.816s3.406 11.229 11.379 13.063 12.684-2.219 15.94-7.31 3.288-14.815-.717-19.869a25.784 25.784 0 0 0-5.2-4.829 18.849 18.849 0 0 1 11.3 4.185c3.9 3.153 4.383 9.737 3.613 14.855a39.453 39.453 0 0 1-.9 3.863c-.082.246-.144.459-.188.644-.9 3.016-2.044 5.69-2.42 6.655-.4 1.033-1.085 2.591.263 2.713a12.462 12.462 0 0 0 5.888-1.277c1.547-.927 1.416-1.7 2.373-5.089s2.661-8.461 5.374-11.891 5.5-5.653 6.546-5.653 1 .682-.122 4.918-2.536 10.366-2.366 14.7c.127 3.23.531 7.413 5.581 8.766l.035.007h.006c2.355.466 5 .122 8.674-4.18 4.056-4.752 7.8-14.492 9.384-24.521.209-1.323.411-2.543.6-3.674a34.263 34.263 0 0 0 7.586 2.741c3.967.8 7.059-.409 8.126-2.7s.508-5.086-1.751-5.719zm-67.486 24.5c-3.22 6.768-8.449 7.7-11.774 5.356s-3.78-7-3.431-12.358 3.894-13.061 9.246-15.6a12.7 12.7 0 0 1 2.949-.973 15.864 15.864 0 0 1 2.353 2.41c3.533 4.485 3.878 14.398.657 21.168z" class="cls-1" transform="translate(-103.009 0)"/>
        <path id="Caminho_135" d="M125.1 234.081c-2.888.371-3.423 4.609-.707 5.574 3.482 1.233 5.405-1.76 4.952-4.327-.36-2.041-2.163-3.965-5.729-3.679q-.476.039-.993.131c-16.768 3.008-12.487 36.5-13.886 37.241s-7.72-9.433-9.371-14.6c-3.736-11.7-3.569-19.54-3.966-20.342-.5-1.01-3.564.684-5.618 2.989-1.465 1.648-1.483 4.1-1.054 6.362a75.942 75.942 0 0 0 9.586 24.2c3.935 6.377 15.022 19.09 13.649 6.969-4.296-37.936 11.008-41.946 13.137-40.518z" class="cls-1" transform="translate(0 -9.241)"/>
        <path id="Caminho_136" d="M675.242 297.362a6.709 6.709 0 0 0-3.553 0c-.8.229-1.341.6-1.775 2.292-.385 1.5-4.321 19.187-14.194 24.168-3.3 1.666 2.449 1.322 4.522.454 8.927-3.733 13.293-15.031 16.172-25.087 0 0 .72-1.449-1.172-1.827z" class="cls-1" transform="translate(-407.493 -56.387)"/>
        <path id="Caminho_137" d="M758.353 260.921v-.021a.456.456 0 0 0 .369-.412.493.493 0 0 0-.174-.39 1.107 1.107 0 0 0-.618-.13 3.6 3.6 0 0 0-.683.054v1.778h.412v-.716h.2c.228 0 .336.087.369.282a1.522 1.522 0 0 0 .141.434h.445a1.358 1.358 0 0 1-.13-.445.525.525 0 0 0-.331-.434zm-.488-.13h-.2v-.51a1 1 0 0 1 .228-.022c.26 0 .38.109.38.271.004.185-.18.261-.408.261z" class="cls-1" transform="translate(-481.278 -29.642)"/>
        <path id="Caminho_138" d="M755.019 256.833a1.79 1.79 0 1 0 1.822 1.779 1.8 1.8 0 0 0-1.822-1.779zm.011 3.2a1.422 1.422 0 1 1 1.355-1.41 1.362 1.362 0 0 1-1.355 1.409z" class="cls-1" transform="translate(-478.356 -27.386)"/>
    </g>
</svg>
